G04 #@! TF.GenerationSoftware,KiCad,Pcbnew,5.1.4-3.fc30*
G04 #@! TF.CreationDate,2019-09-04T23:18:52+02:00*
G04 #@! TF.ProjectId,PrintEye,5072696e-7445-4796-952e-6b696361645f,rev?*
G04 #@! TF.SameCoordinates,PX7274898PY7142240*
G04 #@! TF.FileFunction,Copper,L2,Bot*
G04 #@! TF.FilePolarity,Positive*
%FSLAX46Y46*%
G04 Gerber Fmt 4.6, Leading zero omitted, Abs format (unit mm)*
G04 Created by KiCad (PCBNEW 5.1.4-3.fc30) date 2019-09-04 23:18:52*
%MOMM*%
%LPD*%
G04 APERTURE LIST*
%ADD10C,0.200000*%
%ADD11O,1.800000X3.000000*%
%ADD12R,1.800000X3.000000*%
%ADD13C,1.800000*%
%ADD14C,0.100000*%
%ADD15C,1.800000*%
%ADD16O,2.600000X1.600000*%
%ADD17C,1.600000*%
%ADD18C,1.600000*%
%ADD19O,2.200000X1.600000*%
%ADD20O,1.600000X2.200000*%
%ADD21O,1.400000X2.200000*%
%ADD22R,1.400000X2.200000*%
%ADD23O,2.000000X1.600000*%
%ADD24O,1.600000X2.600000*%
%ADD25C,1.000000*%
%ADD26C,2.000000*%
%ADD27C,0.800000*%
%ADD28C,0.254000*%
G04 APERTURE END LIST*
D10*
X40371428Y18976191D02*
X40028571Y18976191D01*
X39857142Y18900000D01*
X39685714Y18747620D01*
X39600000Y18442858D01*
X39600000Y17909524D01*
X39685714Y17604762D01*
X39857142Y17452381D01*
X40028571Y17376191D01*
X40371428Y17376191D01*
X40542857Y17452381D01*
X40714285Y17604762D01*
X40800000Y17909524D01*
X40800000Y18442858D01*
X40714285Y18747620D01*
X40542857Y18900000D01*
X40371428Y18976191D01*
X38828571Y17376191D02*
X38828571Y18976191D01*
X38142857Y18976191D01*
X37971428Y18900000D01*
X37885714Y18823810D01*
X37800000Y18671429D01*
X37800000Y18442858D01*
X37885714Y18290477D01*
X37971428Y18214286D01*
X38142857Y18138096D01*
X38828571Y18138096D01*
X36000000Y17528572D02*
X36085714Y17452381D01*
X36342857Y17376191D01*
X36514285Y17376191D01*
X36771428Y17452381D01*
X36942857Y17604762D01*
X37028571Y17757143D01*
X37114285Y18061905D01*
X37114285Y18290477D01*
X37028571Y18595239D01*
X36942857Y18747620D01*
X36771428Y18900000D01*
X36514285Y18976191D01*
X36342857Y18976191D01*
X36085714Y18900000D01*
X36000000Y18823810D01*
D11*
X38800000Y3550000D03*
X36260000Y3550000D03*
X33720000Y3550000D03*
X31180000Y3550000D03*
X28640000Y3550000D03*
D12*
X26100000Y3550000D03*
D11*
X47560000Y27550000D03*
D12*
X50100000Y27550000D03*
D11*
X47460000Y3450000D03*
D12*
X50000000Y3450000D03*
D13*
X23495000Y7000000D03*
D14*
G36*
X23565711Y8343503D02*
G01*
X24838503Y7070711D01*
X23424289Y5656497D01*
X22151497Y6929289D01*
X23565711Y8343503D01*
X23565711Y8343503D01*
G37*
D13*
X19902898Y10592102D03*
D15*
X19973609Y10662813D02*
X19832187Y10521391D01*
D13*
X21698949Y8796051D03*
D15*
X21769660Y8866762D02*
X21628238Y8725340D01*
D13*
X17780000Y7000000D03*
D14*
G36*
X17850711Y8343503D02*
G01*
X19123503Y7070711D01*
X17709289Y5656497D01*
X16436497Y6929289D01*
X17850711Y8343503D01*
X17850711Y8343503D01*
G37*
D13*
X14187898Y10592102D03*
D15*
X14258609Y10662813D02*
X14117187Y10521391D01*
D13*
X15983949Y8796051D03*
D15*
X16054660Y8866762D02*
X15913238Y8725340D01*
D11*
X17145000Y26920000D03*
X14605000Y26920000D03*
X12065000Y26920000D03*
X9525000Y26920000D03*
X42545000Y26920000D03*
X40005000Y26920000D03*
X37465000Y26920000D03*
X34925000Y26920000D03*
D16*
X36255000Y9240000D03*
X41135000Y9240000D03*
D17*
X45090000Y27599114D03*
D18*
X45240000Y27339306D02*
X44940000Y27858922D01*
D17*
X48900000Y21000000D03*
D18*
X49050000Y20740192D02*
X48750000Y21259808D01*
D19*
X9525000Y18430000D03*
X1905000Y18430000D03*
X9525000Y14620000D03*
X1905000Y14620000D03*
D20*
X3810000Y7000000D03*
X11430000Y7000000D03*
D19*
X9525000Y10810000D03*
X1905000Y10810000D03*
X1905000Y3190000D03*
X9525000Y3190000D03*
D21*
X14065000Y3825000D03*
D22*
X12065000Y3825000D03*
D23*
X45620000Y9240000D03*
X48120000Y9240000D03*
X31800000Y9240000D03*
X29300000Y9240000D03*
D24*
X13335000Y20970000D03*
X46355000Y13350000D03*
X15875000Y20970000D03*
X43815000Y13350000D03*
X18415000Y20970000D03*
X41275000Y13350000D03*
X20955000Y20970000D03*
X38735000Y13350000D03*
X23495000Y20970000D03*
X36195000Y13350000D03*
X26035000Y20970000D03*
X33655000Y13350000D03*
X28575000Y20970000D03*
X31115000Y13350000D03*
X31115000Y20970000D03*
X28575000Y13350000D03*
X33655000Y20970000D03*
X26035000Y13350000D03*
X36195000Y20970000D03*
X23495000Y13350000D03*
X38735000Y20970000D03*
X20955000Y13350000D03*
X41275000Y20970000D03*
X18415000Y13350000D03*
X43815000Y20970000D03*
X15875000Y13350000D03*
X46355000Y20970000D03*
X13335000Y13350000D03*
D25*
X28550000Y23100000D03*
X19050000Y24780000D03*
X8255000Y24780000D03*
X32385000Y27320000D03*
D26*
X20300000Y5250000D03*
X31100000Y5350000D03*
D27*
X35800000Y3570000D02*
X35780000Y3550000D01*
X33655000Y13350000D02*
X33655000Y10690000D01*
X33655000Y9740000D02*
X33655000Y10690000D01*
X34155000Y9240000D02*
X33655000Y9740000D01*
X36255000Y9240000D02*
X34155000Y9240000D01*
X33655000Y9295000D02*
X33655000Y9740000D01*
X33600000Y9240000D02*
X33655000Y9295000D01*
X31800000Y9240000D02*
X33600000Y9240000D01*
X28575000Y20970000D02*
X28575000Y23510000D01*
X36195000Y12850000D02*
X36195000Y13350000D01*
X39805000Y9240000D02*
X36195000Y12850000D01*
X41135000Y9240000D02*
X39805000Y9240000D01*
X45620000Y9240000D02*
X41135000Y9240000D01*
X28575000Y15450000D02*
X25255010Y18769990D01*
X1905000Y18430000D02*
X1905000Y14620000D01*
X33655000Y20470000D02*
X31954990Y18769990D01*
X33655000Y20970000D02*
X33655000Y20470000D01*
X37465000Y27770000D02*
X37465000Y27320000D01*
X1905000Y10810000D02*
X1905000Y3190000D01*
X25060010Y18769990D02*
X12630833Y18769990D01*
X28575000Y13350000D02*
X28575000Y15450000D01*
X28575000Y13350000D02*
X28575000Y13268666D01*
X25255010Y18769990D02*
X25060010Y18769990D01*
X31954990Y18769990D02*
X25060010Y18769990D01*
X1905000Y14620000D02*
X1905000Y10810000D01*
X28575000Y13850000D02*
X28575000Y13350000D01*
X28575000Y12850000D02*
X28575000Y13350000D01*
X26800000Y11075000D02*
X28575000Y12850000D01*
X26800000Y9135823D02*
X26800000Y11075000D01*
X33720000Y5850000D02*
X32030010Y7539990D01*
X28395833Y7539990D02*
X26800000Y9135823D01*
X32030010Y7539990D02*
X28395833Y7539990D01*
X33720000Y3550000D02*
X33720000Y5850000D01*
X10465000Y29370000D02*
X12065000Y27770000D01*
X8266089Y29370000D02*
X10465000Y29370000D01*
X1905000Y23008911D02*
X8266089Y29370000D01*
X12065000Y27770000D02*
X12065000Y27320000D01*
X1905000Y18430000D02*
X1905000Y23008911D01*
X37465000Y27525598D02*
X37465000Y27320000D01*
X13859412Y29320010D02*
X35670588Y29320010D01*
X35670588Y29320010D02*
X37465000Y27525598D01*
X12804990Y28265588D02*
X13859412Y29320010D01*
X12804990Y27654990D02*
X12804990Y28265588D01*
X12470000Y27320000D02*
X12804990Y27654990D01*
X12065000Y27320000D02*
X12470000Y27320000D01*
X11634990Y23208481D02*
X11634990Y19765833D01*
X11634990Y19765833D02*
X12630833Y18769990D01*
X12065000Y23638491D02*
X11634990Y23208481D01*
X12065000Y27320000D02*
X12065000Y23638491D01*
X9525000Y10810000D02*
X9525000Y10175000D01*
X9525000Y10175000D02*
X11430000Y7000000D01*
X11430000Y7000000D02*
X15983949Y8796051D01*
X18021980Y9644578D02*
X19750000Y7900000D01*
X15983949Y8796051D02*
X16832476Y9644578D01*
X16832476Y9644578D02*
X18021980Y9644578D01*
X20802898Y7900000D02*
X21698949Y8796051D01*
X19750000Y7900000D02*
X20802898Y7900000D01*
X16674990Y17190010D02*
X10764990Y17190010D01*
X10764990Y17190010D02*
X9525000Y18430000D01*
X18415000Y13350000D02*
X18415000Y15450000D01*
X18415000Y15450000D02*
X16674990Y17190010D01*
X18415000Y11445000D02*
X18415000Y13350000D01*
X19902898Y10592102D02*
X18415000Y11445000D01*
X15435000Y15890000D02*
X15875000Y15450000D01*
X9525000Y14620000D02*
X10795000Y15890000D01*
X15875000Y15450000D02*
X15875000Y13350000D01*
X10795000Y15890000D02*
X15435000Y15890000D01*
X15875000Y12279204D02*
X14187898Y10592102D01*
X15875000Y13350000D02*
X15875000Y12279204D01*
X15665000Y3825000D02*
X14065000Y3825000D01*
X16140001Y3349999D02*
X15665000Y3825000D01*
X21212001Y3349999D02*
X16140001Y3349999D01*
X21412002Y3550000D02*
X21212001Y3349999D01*
X26100000Y3550000D02*
X21412002Y3550000D01*
X29013490Y24910001D02*
X24395001Y24910001D01*
X20955000Y21470000D02*
X20955000Y20970000D01*
X24395001Y24910001D02*
X20955000Y21470000D01*
X30753481Y23170010D02*
X29013490Y24910001D01*
X42545000Y23735843D02*
X41979167Y23170010D01*
X41979167Y23170010D02*
X30753481Y23170010D01*
X42545000Y27320000D02*
X42545000Y23735843D01*
X17145000Y24340000D02*
X17145000Y27320000D01*
X15875000Y23070000D02*
X17145000Y24340000D01*
X15875000Y20970000D02*
X15875000Y23070000D01*
X7524990Y6790010D02*
X9525000Y4790000D01*
X9525000Y4790000D02*
X9525000Y3190000D01*
X7524990Y11514167D02*
X7524990Y6790010D01*
X8520833Y12510010D02*
X7524990Y11514167D01*
X10895010Y12510010D02*
X8520833Y12510010D01*
X11735000Y13350000D02*
X10895010Y12510010D01*
X13335000Y13350000D02*
X11735000Y13350000D01*
X11430000Y3190000D02*
X12065000Y3825000D01*
X9525000Y3190000D02*
X11430000Y3190000D01*
X24131395Y6363605D02*
X23495000Y7000000D01*
X24255020Y6239980D02*
X24131395Y6363605D01*
X28250020Y6239980D02*
X24255020Y6239980D01*
X28640000Y5850000D02*
X28250020Y6239980D01*
X28640000Y3550000D02*
X28640000Y5850000D01*
X20300000Y5250000D02*
X19530000Y5250000D01*
X19530000Y5250000D02*
X17780000Y7000000D01*
X31100000Y3630000D02*
X31180000Y3550000D01*
X31100000Y5350000D02*
X31100000Y3630000D01*
X43815000Y18870000D02*
X44185000Y18500000D01*
X43815000Y20970000D02*
X43815000Y18870000D01*
X44185000Y18500000D02*
X49250000Y18500000D01*
X47460000Y5450000D02*
X47460000Y3450000D01*
X50020010Y8010010D02*
X47460000Y5450000D01*
X50020010Y17729990D02*
X50020010Y8010010D01*
X49250000Y18500000D02*
X50020010Y17729990D01*
X47510886Y27599114D02*
X47560000Y27550000D01*
X45090000Y27599114D02*
X47510886Y27599114D01*
X48870000Y20970000D02*
X48900000Y21000000D01*
X46355000Y20970000D02*
X48870000Y20970000D01*
X18415000Y21470000D02*
X18415000Y20970000D01*
X23155011Y26210011D02*
X18415000Y21470000D01*
X31241991Y24519990D02*
X29551971Y26210011D01*
X29551971Y26210011D02*
X23155011Y26210011D01*
X38210588Y24519990D02*
X31241991Y24519990D01*
X40005000Y26314402D02*
X38210588Y24519990D01*
X40005000Y27320000D02*
X40005000Y26314402D01*
X14605000Y24340000D02*
X14605000Y27320000D01*
X13335000Y23070000D02*
X14605000Y24340000D01*
X13335000Y20970000D02*
X13335000Y23070000D01*
D28*
G36*
X51415001Y734342D02*
G01*
X685000Y685657D01*
X685000Y2088646D01*
X803899Y1991068D01*
X1053192Y1857818D01*
X1323691Y1775764D01*
X1534508Y1755000D01*
X2275492Y1755000D01*
X2486309Y1775764D01*
X2756808Y1857818D01*
X3006101Y1991068D01*
X3224608Y2170392D01*
X3403932Y2388899D01*
X3537182Y2638192D01*
X3619236Y2908691D01*
X3646943Y3190000D01*
X3619236Y3471309D01*
X3537182Y3741808D01*
X3403932Y3991101D01*
X3224608Y4209608D01*
X3006101Y4388932D01*
X2940000Y4424264D01*
X2940000Y9575736D01*
X3006101Y9611068D01*
X3224608Y9790392D01*
X3403932Y10008899D01*
X3537182Y10258192D01*
X3619236Y10528691D01*
X3646943Y10810000D01*
X3619236Y11091309D01*
X3537182Y11361808D01*
X3403932Y11611101D01*
X3224608Y11829608D01*
X3006101Y12008932D01*
X2940000Y12044264D01*
X2940000Y13385736D01*
X3006101Y13421068D01*
X3224608Y13600392D01*
X3403932Y13818899D01*
X3537182Y14068192D01*
X3619236Y14338691D01*
X3646943Y14620000D01*
X3619236Y14901309D01*
X3537182Y15171808D01*
X3403932Y15421101D01*
X3224608Y15639608D01*
X3006101Y15818932D01*
X2940000Y15854264D01*
X2940000Y17195736D01*
X3006101Y17231068D01*
X3224608Y17410392D01*
X3403932Y17628899D01*
X3537182Y17878192D01*
X3619236Y18148691D01*
X3646943Y18430000D01*
X3619236Y18711309D01*
X3537182Y18981808D01*
X3403932Y19231101D01*
X3224608Y19449608D01*
X3006101Y19628932D01*
X2940000Y19664264D01*
X2940000Y22580201D01*
X8694800Y28335000D01*
X10036290Y28335000D01*
X10552046Y27819244D01*
X10530000Y27595407D01*
X10530000Y26244592D01*
X10552210Y26019087D01*
X10639983Y25729739D01*
X10782520Y25463073D01*
X10974340Y25229339D01*
X11030001Y25183660D01*
X11030001Y24067202D01*
X10939087Y23976288D01*
X10899594Y23943877D01*
X10770256Y23786278D01*
X10674149Y23606473D01*
X10614966Y23411375D01*
X10599990Y23259318D01*
X10599990Y23259309D01*
X10594984Y23208481D01*
X10599990Y23157653D01*
X10599991Y19816671D01*
X10594984Y19765833D01*
X10607487Y19638881D01*
X10376808Y19762182D01*
X10106309Y19844236D01*
X9895492Y19865000D01*
X9154508Y19865000D01*
X8943691Y19844236D01*
X8673192Y19762182D01*
X8423899Y19628932D01*
X8205392Y19449608D01*
X8026068Y19231101D01*
X7892818Y18981808D01*
X7810764Y18711309D01*
X7783057Y18430000D01*
X7810764Y18148691D01*
X7892818Y17878192D01*
X8026068Y17628899D01*
X8205392Y17410392D01*
X8423899Y17231068D01*
X8673192Y17097818D01*
X8943691Y17015764D01*
X9154508Y16995000D01*
X9496289Y16995000D01*
X9966289Y16525000D01*
X9496289Y16055000D01*
X9154508Y16055000D01*
X8943691Y16034236D01*
X8673192Y15952182D01*
X8423899Y15818932D01*
X8205392Y15639608D01*
X8026068Y15421101D01*
X7892818Y15171808D01*
X7810764Y14901309D01*
X7783057Y14620000D01*
X7810764Y14338691D01*
X7892818Y14068192D01*
X8026068Y13818899D01*
X8205392Y13600392D01*
X8298360Y13524095D01*
X8122840Y13470851D01*
X8042291Y13427797D01*
X7943035Y13374744D01*
X7851018Y13299227D01*
X7785437Y13245406D01*
X7753030Y13205918D01*
X6829087Y12281974D01*
X6789594Y12249563D01*
X6660256Y12091964D01*
X6564149Y11912159D01*
X6504966Y11717061D01*
X6489990Y11565004D01*
X6489990Y11564995D01*
X6484984Y11514167D01*
X6489990Y11463339D01*
X6489991Y6840848D01*
X6484984Y6790010D01*
X6504967Y6587115D01*
X6564150Y6392017D01*
X6660256Y6212213D01*
X6757187Y6094103D01*
X6789595Y6054614D01*
X6829082Y6022208D01*
X8448961Y4402328D01*
X8423899Y4388932D01*
X8205392Y4209608D01*
X8026068Y3991101D01*
X7892818Y3741808D01*
X7810764Y3471309D01*
X7783057Y3190000D01*
X7810764Y2908691D01*
X7892818Y2638192D01*
X8026068Y2388899D01*
X8205392Y2170392D01*
X8423899Y1991068D01*
X8673192Y1857818D01*
X8943691Y1775764D01*
X9154508Y1755000D01*
X9895492Y1755000D01*
X10106309Y1775764D01*
X10376808Y1857818D01*
X10626101Y1991068D01*
X10825853Y2155000D01*
X11084335Y2155000D01*
X11120820Y2135498D01*
X11240518Y2099188D01*
X11365000Y2086928D01*
X12765000Y2086928D01*
X12889482Y2099188D01*
X13009180Y2135498D01*
X13119494Y2194463D01*
X13216185Y2273815D01*
X13275413Y2345985D01*
X13319726Y2309618D01*
X13551647Y2185653D01*
X13803295Y2109317D01*
X14065000Y2083541D01*
X14326706Y2109317D01*
X14578354Y2185653D01*
X14810275Y2309618D01*
X15013555Y2476445D01*
X15180382Y2679725D01*
X15238268Y2788022D01*
X15372194Y2654096D01*
X15404605Y2614603D01*
X15562204Y2485265D01*
X15742008Y2389158D01*
X15937106Y2329975D01*
X16089163Y2314999D01*
X16089166Y2314999D01*
X16140001Y2309992D01*
X16190836Y2314999D01*
X21161173Y2314999D01*
X21212001Y2309993D01*
X21262829Y2314999D01*
X21262839Y2314999D01*
X21414896Y2329975D01*
X21609994Y2389158D01*
X21789798Y2485265D01*
X21826030Y2515000D01*
X24561928Y2515000D01*
X24561928Y2050000D01*
X24574188Y1925518D01*
X24610498Y1805820D01*
X24669463Y1695506D01*
X24748815Y1598815D01*
X24845506Y1519463D01*
X24955820Y1460498D01*
X25075518Y1424188D01*
X25200000Y1411928D01*
X27000000Y1411928D01*
X27124482Y1424188D01*
X27244180Y1460498D01*
X27354494Y1519463D01*
X27451185Y1598815D01*
X27530537Y1695506D01*
X27589502Y1805820D01*
X27594495Y1822281D01*
X27783074Y1667519D01*
X28049740Y1524983D01*
X28339088Y1437210D01*
X28640000Y1407573D01*
X28940913Y1437210D01*
X29230261Y1524983D01*
X29496927Y1667519D01*
X29730661Y1859339D01*
X29910001Y2077865D01*
X30089340Y1859339D01*
X30323074Y1667519D01*
X30589740Y1524983D01*
X30879088Y1437210D01*
X31180000Y1407573D01*
X31480913Y1437210D01*
X31770261Y1524983D01*
X32036927Y1667519D01*
X32270661Y1859339D01*
X32450001Y2077865D01*
X32629340Y1859339D01*
X32863074Y1667519D01*
X33129740Y1524983D01*
X33419088Y1437210D01*
X33720000Y1407573D01*
X34020913Y1437210D01*
X34310261Y1524983D01*
X34576927Y1667519D01*
X34810661Y1859339D01*
X34990001Y2077865D01*
X35169340Y1859339D01*
X35403074Y1667519D01*
X35669740Y1524983D01*
X35959088Y1437210D01*
X36260000Y1407573D01*
X36560913Y1437210D01*
X36850261Y1524983D01*
X37116927Y1667519D01*
X37350661Y1859339D01*
X37542481Y2093073D01*
X37685017Y2359739D01*
X37772790Y2649087D01*
X37795000Y2874592D01*
X37795000Y4225408D01*
X37772790Y4450913D01*
X37685017Y4740261D01*
X37542481Y5006927D01*
X37350661Y5240661D01*
X37116926Y5432481D01*
X36850260Y5575017D01*
X36560912Y5662790D01*
X36260000Y5692427D01*
X35959087Y5662790D01*
X35669739Y5575017D01*
X35403073Y5432481D01*
X35169339Y5240661D01*
X34990000Y5022135D01*
X34810661Y5240661D01*
X34755000Y5286340D01*
X34755000Y5799165D01*
X34760007Y5850000D01*
X34752593Y5925276D01*
X34740024Y6052895D01*
X34680841Y6247993D01*
X34603733Y6392252D01*
X34584734Y6427798D01*
X34487803Y6545908D01*
X34455396Y6585396D01*
X34415908Y6617803D01*
X32906304Y8127406D01*
X33000853Y8205000D01*
X33549172Y8205000D01*
X33600000Y8199994D01*
X33650828Y8205000D01*
X33650838Y8205000D01*
X33802895Y8219976D01*
X33877500Y8242607D01*
X33952105Y8219976D01*
X34104162Y8205000D01*
X34104165Y8205000D01*
X34155000Y8199993D01*
X34205835Y8205000D01*
X34754147Y8205000D01*
X34953899Y8041068D01*
X35203192Y7907818D01*
X35473691Y7825764D01*
X35684508Y7805000D01*
X36825492Y7805000D01*
X37036309Y7825764D01*
X37306808Y7907818D01*
X37556101Y8041068D01*
X37774608Y8220392D01*
X37953932Y8438899D01*
X38087182Y8688192D01*
X38169236Y8958691D01*
X38196943Y9240000D01*
X38181173Y9400117D01*
X39037197Y8544092D01*
X39069604Y8504604D01*
X39109092Y8472197D01*
X39227202Y8375266D01*
X39304109Y8334159D01*
X39407007Y8279159D01*
X39602105Y8219976D01*
X39617780Y8218432D01*
X39833899Y8041068D01*
X40083192Y7907818D01*
X40353691Y7825764D01*
X40564508Y7805000D01*
X41705492Y7805000D01*
X41916309Y7825764D01*
X42186808Y7907818D01*
X42436101Y8041068D01*
X42635853Y8205000D01*
X44419147Y8205000D01*
X44618899Y8041068D01*
X44868192Y7907818D01*
X45138691Y7825764D01*
X45349508Y7805000D01*
X45890492Y7805000D01*
X46101309Y7825764D01*
X46371808Y7907818D01*
X46621101Y8041068D01*
X46839608Y8220392D01*
X47018932Y8438899D01*
X47152182Y8688192D01*
X47234236Y8958691D01*
X47261943Y9240000D01*
X47234236Y9521309D01*
X47152182Y9791808D01*
X47018932Y10041101D01*
X46839608Y10259608D01*
X46621101Y10438932D01*
X46371808Y10572182D01*
X46101309Y10654236D01*
X45890492Y10675000D01*
X45349508Y10675000D01*
X45138691Y10654236D01*
X44868192Y10572182D01*
X44618899Y10438932D01*
X44419147Y10275000D01*
X42635853Y10275000D01*
X42436101Y10438932D01*
X42186808Y10572182D01*
X41916309Y10654236D01*
X41705492Y10675000D01*
X40564508Y10675000D01*
X40353691Y10654236D01*
X40083192Y10572182D01*
X39987616Y10521095D01*
X39059765Y11448946D01*
X39286808Y11517818D01*
X39536101Y11651068D01*
X39754608Y11830392D01*
X39933932Y12048899D01*
X40005000Y12181858D01*
X40076068Y12048899D01*
X40255393Y11830392D01*
X40473900Y11651068D01*
X40723193Y11517818D01*
X40993692Y11435764D01*
X41275000Y11408057D01*
X41556309Y11435764D01*
X41826808Y11517818D01*
X42076101Y11651068D01*
X42294608Y11830392D01*
X42473932Y12048899D01*
X42545000Y12181858D01*
X42616068Y12048899D01*
X42795393Y11830392D01*
X43013900Y11651068D01*
X43263193Y11517818D01*
X43533692Y11435764D01*
X43815000Y11408057D01*
X44096309Y11435764D01*
X44366808Y11517818D01*
X44616101Y11651068D01*
X44834608Y11830392D01*
X45013932Y12048899D01*
X45085000Y12181858D01*
X45156068Y12048899D01*
X45335393Y11830392D01*
X45553900Y11651068D01*
X45803193Y11517818D01*
X46073692Y11435764D01*
X46355000Y11408057D01*
X46636309Y11435764D01*
X46906808Y11517818D01*
X47156101Y11651068D01*
X47374608Y11830392D01*
X47553932Y12048899D01*
X47687182Y12298192D01*
X47769236Y12568691D01*
X47790000Y12779508D01*
X47790000Y13920492D01*
X47769236Y14131309D01*
X47687182Y14401808D01*
X47553932Y14651101D01*
X47374607Y14869608D01*
X47156100Y15048932D01*
X46906807Y15182182D01*
X46636308Y15264236D01*
X46355000Y15291943D01*
X46073691Y15264236D01*
X45803192Y15182182D01*
X45553899Y15048932D01*
X45335392Y14869607D01*
X45156068Y14651100D01*
X45085000Y14518142D01*
X45013932Y14651101D01*
X44834607Y14869608D01*
X44616100Y15048932D01*
X44366807Y15182182D01*
X44096308Y15264236D01*
X43815000Y15291943D01*
X43533691Y15264236D01*
X43263192Y15182182D01*
X43013899Y15048932D01*
X42795392Y14869607D01*
X42616068Y14651100D01*
X42545000Y14518142D01*
X42473932Y14651101D01*
X42294607Y14869608D01*
X42076100Y15048932D01*
X41826807Y15182182D01*
X41556308Y15264236D01*
X41275000Y15291943D01*
X40993691Y15264236D01*
X40723192Y15182182D01*
X40473899Y15048932D01*
X40255392Y14869607D01*
X40076068Y14651100D01*
X40005000Y14518142D01*
X39933932Y14651101D01*
X39754607Y14869608D01*
X39536100Y15048932D01*
X39286807Y15182182D01*
X39016308Y15264236D01*
X38735000Y15291943D01*
X38453691Y15264236D01*
X38183192Y15182182D01*
X37933899Y15048932D01*
X37715392Y14869607D01*
X37536068Y14651100D01*
X37465000Y14518142D01*
X37393932Y14651101D01*
X37214607Y14869608D01*
X36996100Y15048932D01*
X36746807Y15182182D01*
X36476308Y15264236D01*
X36195000Y15291943D01*
X35913691Y15264236D01*
X35643192Y15182182D01*
X35393899Y15048932D01*
X35175392Y14869607D01*
X34996068Y14651100D01*
X34925000Y14518142D01*
X34853932Y14651101D01*
X34674607Y14869608D01*
X34456100Y15048932D01*
X34206807Y15182182D01*
X33936308Y15264236D01*
X33655000Y15291943D01*
X33373691Y15264236D01*
X33103192Y15182182D01*
X32853899Y15048932D01*
X32635392Y14869607D01*
X32456068Y14651100D01*
X32322818Y14401807D01*
X32240764Y14131308D01*
X32220000Y13920491D01*
X32220000Y12779508D01*
X32240764Y12568691D01*
X32322818Y12298192D01*
X32456068Y12048899D01*
X32620001Y11849148D01*
X32620001Y10535732D01*
X32551808Y10572182D01*
X32281309Y10654236D01*
X32070492Y10675000D01*
X31529508Y10675000D01*
X31318691Y10654236D01*
X31048192Y10572182D01*
X30798899Y10438932D01*
X30580392Y10259608D01*
X30401068Y10041101D01*
X30267818Y9791808D01*
X30185764Y9521309D01*
X30158057Y9240000D01*
X30185764Y8958691D01*
X30267818Y8688192D01*
X30328326Y8574990D01*
X28824544Y8574990D01*
X27835000Y9564533D01*
X27835000Y10646290D01*
X28599146Y11410435D01*
X28856309Y11435764D01*
X29126808Y11517818D01*
X29376101Y11651068D01*
X29594608Y11830392D01*
X29773932Y12048899D01*
X29907182Y12298192D01*
X29989236Y12568691D01*
X30010000Y12779508D01*
X30010000Y13920492D01*
X29989236Y14131309D01*
X29907182Y14401808D01*
X29773932Y14651101D01*
X29610000Y14850852D01*
X29610000Y15399165D01*
X29615007Y15450000D01*
X29610000Y15500838D01*
X29595024Y15652895D01*
X29535841Y15847993D01*
X29480151Y15952182D01*
X29439734Y16027798D01*
X29342803Y16145908D01*
X29310396Y16185396D01*
X29270908Y16217803D01*
X27753721Y17734990D01*
X31904162Y17734990D01*
X31954990Y17729984D01*
X32005818Y17734990D01*
X32005828Y17734990D01*
X32157885Y17749966D01*
X32352983Y17809149D01*
X32532787Y17905256D01*
X32690386Y18034594D01*
X32722797Y18074087D01*
X33679146Y19030435D01*
X33936309Y19055764D01*
X34206808Y19137818D01*
X34456101Y19271068D01*
X34674608Y19450392D01*
X34853932Y19668899D01*
X34922143Y19796513D01*
X34922143Y16067000D01*
X41877857Y16067000D01*
X41877857Y19165104D01*
X42076101Y19271068D01*
X42294608Y19450392D01*
X42473932Y19668899D01*
X42545000Y19801858D01*
X42616068Y19668899D01*
X42780001Y19469147D01*
X42780001Y18920838D01*
X42774994Y18870000D01*
X42794977Y18667105D01*
X42854160Y18472007D01*
X42950266Y18292203D01*
X43017701Y18210034D01*
X43079605Y18134604D01*
X43119093Y18102197D01*
X43417193Y17804097D01*
X43449604Y17764604D01*
X43607203Y17635266D01*
X43787007Y17539159D01*
X43982105Y17479976D01*
X44134162Y17465000D01*
X44134171Y17465000D01*
X44184999Y17459994D01*
X44235827Y17465000D01*
X48821290Y17465000D01*
X48985010Y17301279D01*
X48985011Y8438722D01*
X46764097Y6217807D01*
X46724604Y6185396D01*
X46595266Y6027797D01*
X46499159Y5847992D01*
X46439976Y5652894D01*
X46425000Y5500837D01*
X46425000Y5500828D01*
X46419994Y5450000D01*
X46425000Y5399172D01*
X46425000Y5186340D01*
X46369340Y5140661D01*
X46177520Y4906927D01*
X46034983Y4640261D01*
X45947210Y4350913D01*
X45925000Y4125408D01*
X45925000Y2774593D01*
X45947210Y2549088D01*
X46034983Y2259740D01*
X46177519Y1993074D01*
X46369339Y1759339D01*
X46603073Y1567519D01*
X46869739Y1424983D01*
X47159087Y1337210D01*
X47460000Y1307573D01*
X47760912Y1337210D01*
X48050260Y1424983D01*
X48316926Y1567519D01*
X48550661Y1759339D01*
X48742481Y1993073D01*
X48885017Y2259739D01*
X48972790Y2549087D01*
X48995000Y2774592D01*
X48995000Y4125408D01*
X48972790Y4350913D01*
X48885017Y4640261D01*
X48742481Y4906927D01*
X48579379Y5105668D01*
X50715918Y7242207D01*
X50755406Y7274614D01*
X50787813Y7314102D01*
X50884744Y7432212D01*
X50962560Y7577797D01*
X50980851Y7612017D01*
X51040034Y7807115D01*
X51055010Y7959172D01*
X51055010Y7959174D01*
X51060017Y8010010D01*
X51055010Y8060845D01*
X51055010Y17679155D01*
X51060017Y17729990D01*
X51055010Y17780828D01*
X51040034Y17932885D01*
X50988731Y18102007D01*
X50980851Y18127984D01*
X50884744Y18307788D01*
X50787813Y18425898D01*
X50755406Y18465386D01*
X50715918Y18497793D01*
X50017807Y19195903D01*
X49985396Y19235396D01*
X49827797Y19364734D01*
X49673437Y19447241D01*
X49770970Y19491432D01*
X50000738Y19656082D01*
X50193970Y19862392D01*
X50343239Y20102436D01*
X50442810Y20366989D01*
X50488856Y20645883D01*
X50479607Y20928403D01*
X50415419Y21203689D01*
X50327993Y21396643D01*
X49957500Y22038355D01*
X49834110Y22210546D01*
X49627800Y22403778D01*
X49387755Y22553047D01*
X49123203Y22652618D01*
X48844308Y22698664D01*
X48561790Y22689415D01*
X48286504Y22625227D01*
X48029030Y22508567D01*
X47799262Y22343918D01*
X47618289Y22150697D01*
X47553932Y22271101D01*
X47374607Y22489608D01*
X47156100Y22668932D01*
X46906807Y22802182D01*
X46636308Y22884236D01*
X46355000Y22911943D01*
X46073691Y22884236D01*
X45803192Y22802182D01*
X45553899Y22668932D01*
X45335392Y22489607D01*
X45156068Y22271100D01*
X45085000Y22138142D01*
X45013932Y22271101D01*
X44834607Y22489608D01*
X44616100Y22668932D01*
X44366807Y22802182D01*
X44096308Y22884236D01*
X43815000Y22911943D01*
X43533691Y22884236D01*
X43263192Y22802182D01*
X43013899Y22668932D01*
X42795392Y22489607D01*
X42616068Y22271100D01*
X42545000Y22138142D01*
X42478175Y22263163D01*
X42556964Y22305276D01*
X42714563Y22434614D01*
X42746974Y22474107D01*
X43240903Y22968036D01*
X43280396Y23000447D01*
X43409734Y23158046D01*
X43505841Y23337850D01*
X43565024Y23532948D01*
X43580000Y23685005D01*
X43580000Y23685008D01*
X43585007Y23735843D01*
X43580000Y23786678D01*
X43580000Y25183659D01*
X43635661Y25229339D01*
X43827481Y25463073D01*
X43970017Y25729739D01*
X44057790Y26019087D01*
X44080000Y26244592D01*
X44080000Y26494473D01*
X44155890Y26388568D01*
X44362200Y26195336D01*
X44602245Y26046067D01*
X44866797Y25946496D01*
X45145691Y25900450D01*
X45428210Y25909699D01*
X45703496Y25973887D01*
X45960970Y26090546D01*
X46190738Y26255196D01*
X46190818Y26255281D01*
X46277519Y26093074D01*
X46469339Y25859339D01*
X46703073Y25667519D01*
X46969739Y25524983D01*
X47259087Y25437210D01*
X47560000Y25407573D01*
X47860912Y25437210D01*
X48150260Y25524983D01*
X48416926Y25667519D01*
X48650661Y25859339D01*
X48842481Y26093073D01*
X48985017Y26359739D01*
X49072790Y26649087D01*
X49095000Y26874592D01*
X49095000Y28225408D01*
X49072790Y28450913D01*
X48985017Y28740261D01*
X48842481Y29006927D01*
X48650661Y29240661D01*
X48416927Y29432481D01*
X48150261Y29575017D01*
X47860913Y29662790D01*
X47560000Y29692427D01*
X47259088Y29662790D01*
X46969740Y29575017D01*
X46703074Y29432481D01*
X46469340Y29240661D01*
X46277520Y29006927D01*
X46134983Y28740261D01*
X46116798Y28680314D01*
X46024110Y28809660D01*
X45817800Y29002892D01*
X45577755Y29152161D01*
X45313203Y29251732D01*
X45034308Y29297778D01*
X44751790Y29288529D01*
X44476504Y29224341D01*
X44219030Y29107681D01*
X43989262Y28943032D01*
X43796030Y28736722D01*
X43682301Y28553830D01*
X43635661Y28610661D01*
X43401926Y28802481D01*
X43135260Y28945017D01*
X42845912Y29032790D01*
X42545000Y29062427D01*
X42244087Y29032790D01*
X41954739Y28945017D01*
X41688073Y28802481D01*
X41454339Y28610661D01*
X41275000Y28392135D01*
X41095661Y28610661D01*
X40861926Y28802481D01*
X40595260Y28945017D01*
X40305912Y29032790D01*
X40005000Y29062427D01*
X39704087Y29032790D01*
X39414739Y28945017D01*
X39148073Y28802481D01*
X38914339Y28610661D01*
X38735000Y28392135D01*
X38555661Y28610661D01*
X38321926Y28802481D01*
X38055260Y28945017D01*
X37765912Y29032790D01*
X37465000Y29062427D01*
X37398437Y29055871D01*
X36605665Y29848643D01*
X51415000Y29864277D01*
X51415001Y734342D01*
X51415001Y734342D01*
G37*
X51415001Y734342D02*
X685000Y685657D01*
X685000Y2088646D01*
X803899Y1991068D01*
X1053192Y1857818D01*
X1323691Y1775764D01*
X1534508Y1755000D01*
X2275492Y1755000D01*
X2486309Y1775764D01*
X2756808Y1857818D01*
X3006101Y1991068D01*
X3224608Y2170392D01*
X3403932Y2388899D01*
X3537182Y2638192D01*
X3619236Y2908691D01*
X3646943Y3190000D01*
X3619236Y3471309D01*
X3537182Y3741808D01*
X3403932Y3991101D01*
X3224608Y4209608D01*
X3006101Y4388932D01*
X2940000Y4424264D01*
X2940000Y9575736D01*
X3006101Y9611068D01*
X3224608Y9790392D01*
X3403932Y10008899D01*
X3537182Y10258192D01*
X3619236Y10528691D01*
X3646943Y10810000D01*
X3619236Y11091309D01*
X3537182Y11361808D01*
X3403932Y11611101D01*
X3224608Y11829608D01*
X3006101Y12008932D01*
X2940000Y12044264D01*
X2940000Y13385736D01*
X3006101Y13421068D01*
X3224608Y13600392D01*
X3403932Y13818899D01*
X3537182Y14068192D01*
X3619236Y14338691D01*
X3646943Y14620000D01*
X3619236Y14901309D01*
X3537182Y15171808D01*
X3403932Y15421101D01*
X3224608Y15639608D01*
X3006101Y15818932D01*
X2940000Y15854264D01*
X2940000Y17195736D01*
X3006101Y17231068D01*
X3224608Y17410392D01*
X3403932Y17628899D01*
X3537182Y17878192D01*
X3619236Y18148691D01*
X3646943Y18430000D01*
X3619236Y18711309D01*
X3537182Y18981808D01*
X3403932Y19231101D01*
X3224608Y19449608D01*
X3006101Y19628932D01*
X2940000Y19664264D01*
X2940000Y22580201D01*
X8694800Y28335000D01*
X10036290Y28335000D01*
X10552046Y27819244D01*
X10530000Y27595407D01*
X10530000Y26244592D01*
X10552210Y26019087D01*
X10639983Y25729739D01*
X10782520Y25463073D01*
X10974340Y25229339D01*
X11030001Y25183660D01*
X11030001Y24067202D01*
X10939087Y23976288D01*
X10899594Y23943877D01*
X10770256Y23786278D01*
X10674149Y23606473D01*
X10614966Y23411375D01*
X10599990Y23259318D01*
X10599990Y23259309D01*
X10594984Y23208481D01*
X10599990Y23157653D01*
X10599991Y19816671D01*
X10594984Y19765833D01*
X10607487Y19638881D01*
X10376808Y19762182D01*
X10106309Y19844236D01*
X9895492Y19865000D01*
X9154508Y19865000D01*
X8943691Y19844236D01*
X8673192Y19762182D01*
X8423899Y19628932D01*
X8205392Y19449608D01*
X8026068Y19231101D01*
X7892818Y18981808D01*
X7810764Y18711309D01*
X7783057Y18430000D01*
X7810764Y18148691D01*
X7892818Y17878192D01*
X8026068Y17628899D01*
X8205392Y17410392D01*
X8423899Y17231068D01*
X8673192Y17097818D01*
X8943691Y17015764D01*
X9154508Y16995000D01*
X9496289Y16995000D01*
X9966289Y16525000D01*
X9496289Y16055000D01*
X9154508Y16055000D01*
X8943691Y16034236D01*
X8673192Y15952182D01*
X8423899Y15818932D01*
X8205392Y15639608D01*
X8026068Y15421101D01*
X7892818Y15171808D01*
X7810764Y14901309D01*
X7783057Y14620000D01*
X7810764Y14338691D01*
X7892818Y14068192D01*
X8026068Y13818899D01*
X8205392Y13600392D01*
X8298360Y13524095D01*
X8122840Y13470851D01*
X8042291Y13427797D01*
X7943035Y13374744D01*
X7851018Y13299227D01*
X7785437Y13245406D01*
X7753030Y13205918D01*
X6829087Y12281974D01*
X6789594Y12249563D01*
X6660256Y12091964D01*
X6564149Y11912159D01*
X6504966Y11717061D01*
X6489990Y11565004D01*
X6489990Y11564995D01*
X6484984Y11514167D01*
X6489990Y11463339D01*
X6489991Y6840848D01*
X6484984Y6790010D01*
X6504967Y6587115D01*
X6564150Y6392017D01*
X6660256Y6212213D01*
X6757187Y6094103D01*
X6789595Y6054614D01*
X6829082Y6022208D01*
X8448961Y4402328D01*
X8423899Y4388932D01*
X8205392Y4209608D01*
X8026068Y3991101D01*
X7892818Y3741808D01*
X7810764Y3471309D01*
X7783057Y3190000D01*
X7810764Y2908691D01*
X7892818Y2638192D01*
X8026068Y2388899D01*
X8205392Y2170392D01*
X8423899Y1991068D01*
X8673192Y1857818D01*
X8943691Y1775764D01*
X9154508Y1755000D01*
X9895492Y1755000D01*
X10106309Y1775764D01*
X10376808Y1857818D01*
X10626101Y1991068D01*
X10825853Y2155000D01*
X11084335Y2155000D01*
X11120820Y2135498D01*
X11240518Y2099188D01*
X11365000Y2086928D01*
X12765000Y2086928D01*
X12889482Y2099188D01*
X13009180Y2135498D01*
X13119494Y2194463D01*
X13216185Y2273815D01*
X13275413Y2345985D01*
X13319726Y2309618D01*
X13551647Y2185653D01*
X13803295Y2109317D01*
X14065000Y2083541D01*
X14326706Y2109317D01*
X14578354Y2185653D01*
X14810275Y2309618D01*
X15013555Y2476445D01*
X15180382Y2679725D01*
X15238268Y2788022D01*
X15372194Y2654096D01*
X15404605Y2614603D01*
X15562204Y2485265D01*
X15742008Y2389158D01*
X15937106Y2329975D01*
X16089163Y2314999D01*
X16089166Y2314999D01*
X16140001Y2309992D01*
X16190836Y2314999D01*
X21161173Y2314999D01*
X21212001Y2309993D01*
X21262829Y2314999D01*
X21262839Y2314999D01*
X21414896Y2329975D01*
X21609994Y2389158D01*
X21789798Y2485265D01*
X21826030Y2515000D01*
X24561928Y2515000D01*
X24561928Y2050000D01*
X24574188Y1925518D01*
X24610498Y1805820D01*
X24669463Y1695506D01*
X24748815Y1598815D01*
X24845506Y1519463D01*
X24955820Y1460498D01*
X25075518Y1424188D01*
X25200000Y1411928D01*
X27000000Y1411928D01*
X27124482Y1424188D01*
X27244180Y1460498D01*
X27354494Y1519463D01*
X27451185Y1598815D01*
X27530537Y1695506D01*
X27589502Y1805820D01*
X27594495Y1822281D01*
X27783074Y1667519D01*
X28049740Y1524983D01*
X28339088Y1437210D01*
X28640000Y1407573D01*
X28940913Y1437210D01*
X29230261Y1524983D01*
X29496927Y1667519D01*
X29730661Y1859339D01*
X29910001Y2077865D01*
X30089340Y1859339D01*
X30323074Y1667519D01*
X30589740Y1524983D01*
X30879088Y1437210D01*
X31180000Y1407573D01*
X31480913Y1437210D01*
X31770261Y1524983D01*
X32036927Y1667519D01*
X32270661Y1859339D01*
X32450001Y2077865D01*
X32629340Y1859339D01*
X32863074Y1667519D01*
X33129740Y1524983D01*
X33419088Y1437210D01*
X33720000Y1407573D01*
X34020913Y1437210D01*
X34310261Y1524983D01*
X34576927Y1667519D01*
X34810661Y1859339D01*
X34990001Y2077865D01*
X35169340Y1859339D01*
X35403074Y1667519D01*
X35669740Y1524983D01*
X35959088Y1437210D01*
X36260000Y1407573D01*
X36560913Y1437210D01*
X36850261Y1524983D01*
X37116927Y1667519D01*
X37350661Y1859339D01*
X37542481Y2093073D01*
X37685017Y2359739D01*
X37772790Y2649087D01*
X37795000Y2874592D01*
X37795000Y4225408D01*
X37772790Y4450913D01*
X37685017Y4740261D01*
X37542481Y5006927D01*
X37350661Y5240661D01*
X37116926Y5432481D01*
X36850260Y5575017D01*
X36560912Y5662790D01*
X36260000Y5692427D01*
X35959087Y5662790D01*
X35669739Y5575017D01*
X35403073Y5432481D01*
X35169339Y5240661D01*
X34990000Y5022135D01*
X34810661Y5240661D01*
X34755000Y5286340D01*
X34755000Y5799165D01*
X34760007Y5850000D01*
X34752593Y5925276D01*
X34740024Y6052895D01*
X34680841Y6247993D01*
X34603733Y6392252D01*
X34584734Y6427798D01*
X34487803Y6545908D01*
X34455396Y6585396D01*
X34415908Y6617803D01*
X32906304Y8127406D01*
X33000853Y8205000D01*
X33549172Y8205000D01*
X33600000Y8199994D01*
X33650828Y8205000D01*
X33650838Y8205000D01*
X33802895Y8219976D01*
X33877500Y8242607D01*
X33952105Y8219976D01*
X34104162Y8205000D01*
X34104165Y8205000D01*
X34155000Y8199993D01*
X34205835Y8205000D01*
X34754147Y8205000D01*
X34953899Y8041068D01*
X35203192Y7907818D01*
X35473691Y7825764D01*
X35684508Y7805000D01*
X36825492Y7805000D01*
X37036309Y7825764D01*
X37306808Y7907818D01*
X37556101Y8041068D01*
X37774608Y8220392D01*
X37953932Y8438899D01*
X38087182Y8688192D01*
X38169236Y8958691D01*
X38196943Y9240000D01*
X38181173Y9400117D01*
X39037197Y8544092D01*
X39069604Y8504604D01*
X39109092Y8472197D01*
X39227202Y8375266D01*
X39304109Y8334159D01*
X39407007Y8279159D01*
X39602105Y8219976D01*
X39617780Y8218432D01*
X39833899Y8041068D01*
X40083192Y7907818D01*
X40353691Y7825764D01*
X40564508Y7805000D01*
X41705492Y7805000D01*
X41916309Y7825764D01*
X42186808Y7907818D01*
X42436101Y8041068D01*
X42635853Y8205000D01*
X44419147Y8205000D01*
X44618899Y8041068D01*
X44868192Y7907818D01*
X45138691Y7825764D01*
X45349508Y7805000D01*
X45890492Y7805000D01*
X46101309Y7825764D01*
X46371808Y7907818D01*
X46621101Y8041068D01*
X46839608Y8220392D01*
X47018932Y8438899D01*
X47152182Y8688192D01*
X47234236Y8958691D01*
X47261943Y9240000D01*
X47234236Y9521309D01*
X47152182Y9791808D01*
X47018932Y10041101D01*
X46839608Y10259608D01*
X46621101Y10438932D01*
X46371808Y10572182D01*
X46101309Y10654236D01*
X45890492Y10675000D01*
X45349508Y10675000D01*
X45138691Y10654236D01*
X44868192Y10572182D01*
X44618899Y10438932D01*
X44419147Y10275000D01*
X42635853Y10275000D01*
X42436101Y10438932D01*
X42186808Y10572182D01*
X41916309Y10654236D01*
X41705492Y10675000D01*
X40564508Y10675000D01*
X40353691Y10654236D01*
X40083192Y10572182D01*
X39987616Y10521095D01*
X39059765Y11448946D01*
X39286808Y11517818D01*
X39536101Y11651068D01*
X39754608Y11830392D01*
X39933932Y12048899D01*
X40005000Y12181858D01*
X40076068Y12048899D01*
X40255393Y11830392D01*
X40473900Y11651068D01*
X40723193Y11517818D01*
X40993692Y11435764D01*
X41275000Y11408057D01*
X41556309Y11435764D01*
X41826808Y11517818D01*
X42076101Y11651068D01*
X42294608Y11830392D01*
X42473932Y12048899D01*
X42545000Y12181858D01*
X42616068Y12048899D01*
X42795393Y11830392D01*
X43013900Y11651068D01*
X43263193Y11517818D01*
X43533692Y11435764D01*
X43815000Y11408057D01*
X44096309Y11435764D01*
X44366808Y11517818D01*
X44616101Y11651068D01*
X44834608Y11830392D01*
X45013932Y12048899D01*
X45085000Y12181858D01*
X45156068Y12048899D01*
X45335393Y11830392D01*
X45553900Y11651068D01*
X45803193Y11517818D01*
X46073692Y11435764D01*
X46355000Y11408057D01*
X46636309Y11435764D01*
X46906808Y11517818D01*
X47156101Y11651068D01*
X47374608Y11830392D01*
X47553932Y12048899D01*
X47687182Y12298192D01*
X47769236Y12568691D01*
X47790000Y12779508D01*
X47790000Y13920492D01*
X47769236Y14131309D01*
X47687182Y14401808D01*
X47553932Y14651101D01*
X47374607Y14869608D01*
X47156100Y15048932D01*
X46906807Y15182182D01*
X46636308Y15264236D01*
X46355000Y15291943D01*
X46073691Y15264236D01*
X45803192Y15182182D01*
X45553899Y15048932D01*
X45335392Y14869607D01*
X45156068Y14651100D01*
X45085000Y14518142D01*
X45013932Y14651101D01*
X44834607Y14869608D01*
X44616100Y15048932D01*
X44366807Y15182182D01*
X44096308Y15264236D01*
X43815000Y15291943D01*
X43533691Y15264236D01*
X43263192Y15182182D01*
X43013899Y15048932D01*
X42795392Y14869607D01*
X42616068Y14651100D01*
X42545000Y14518142D01*
X42473932Y14651101D01*
X42294607Y14869608D01*
X42076100Y15048932D01*
X41826807Y15182182D01*
X41556308Y15264236D01*
X41275000Y15291943D01*
X40993691Y15264236D01*
X40723192Y15182182D01*
X40473899Y15048932D01*
X40255392Y14869607D01*
X40076068Y14651100D01*
X40005000Y14518142D01*
X39933932Y14651101D01*
X39754607Y14869608D01*
X39536100Y15048932D01*
X39286807Y15182182D01*
X39016308Y15264236D01*
X38735000Y15291943D01*
X38453691Y15264236D01*
X38183192Y15182182D01*
X37933899Y15048932D01*
X37715392Y14869607D01*
X37536068Y14651100D01*
X37465000Y14518142D01*
X37393932Y14651101D01*
X37214607Y14869608D01*
X36996100Y15048932D01*
X36746807Y15182182D01*
X36476308Y15264236D01*
X36195000Y15291943D01*
X35913691Y15264236D01*
X35643192Y15182182D01*
X35393899Y15048932D01*
X35175392Y14869607D01*
X34996068Y14651100D01*
X34925000Y14518142D01*
X34853932Y14651101D01*
X34674607Y14869608D01*
X34456100Y15048932D01*
X34206807Y15182182D01*
X33936308Y15264236D01*
X33655000Y15291943D01*
X33373691Y15264236D01*
X33103192Y15182182D01*
X32853899Y15048932D01*
X32635392Y14869607D01*
X32456068Y14651100D01*
X32322818Y14401807D01*
X32240764Y14131308D01*
X32220000Y13920491D01*
X32220000Y12779508D01*
X32240764Y12568691D01*
X32322818Y12298192D01*
X32456068Y12048899D01*
X32620001Y11849148D01*
X32620001Y10535732D01*
X32551808Y10572182D01*
X32281309Y10654236D01*
X32070492Y10675000D01*
X31529508Y10675000D01*
X31318691Y10654236D01*
X31048192Y10572182D01*
X30798899Y10438932D01*
X30580392Y10259608D01*
X30401068Y10041101D01*
X30267818Y9791808D01*
X30185764Y9521309D01*
X30158057Y9240000D01*
X30185764Y8958691D01*
X30267818Y8688192D01*
X30328326Y8574990D01*
X28824544Y8574990D01*
X27835000Y9564533D01*
X27835000Y10646290D01*
X28599146Y11410435D01*
X28856309Y11435764D01*
X29126808Y11517818D01*
X29376101Y11651068D01*
X29594608Y11830392D01*
X29773932Y12048899D01*
X29907182Y12298192D01*
X29989236Y12568691D01*
X30010000Y12779508D01*
X30010000Y13920492D01*
X29989236Y14131309D01*
X29907182Y14401808D01*
X29773932Y14651101D01*
X29610000Y14850852D01*
X29610000Y15399165D01*
X29615007Y15450000D01*
X29610000Y15500838D01*
X29595024Y15652895D01*
X29535841Y15847993D01*
X29480151Y15952182D01*
X29439734Y16027798D01*
X29342803Y16145908D01*
X29310396Y16185396D01*
X29270908Y16217803D01*
X27753721Y17734990D01*
X31904162Y17734990D01*
X31954990Y17729984D01*
X32005818Y17734990D01*
X32005828Y17734990D01*
X32157885Y17749966D01*
X32352983Y17809149D01*
X32532787Y17905256D01*
X32690386Y18034594D01*
X32722797Y18074087D01*
X33679146Y19030435D01*
X33936309Y19055764D01*
X34206808Y19137818D01*
X34456101Y19271068D01*
X34674608Y19450392D01*
X34853932Y19668899D01*
X34922143Y19796513D01*
X34922143Y16067000D01*
X41877857Y16067000D01*
X41877857Y19165104D01*
X42076101Y19271068D01*
X42294608Y19450392D01*
X42473932Y19668899D01*
X42545000Y19801858D01*
X42616068Y19668899D01*
X42780001Y19469147D01*
X42780001Y18920838D01*
X42774994Y18870000D01*
X42794977Y18667105D01*
X42854160Y18472007D01*
X42950266Y18292203D01*
X43017701Y18210034D01*
X43079605Y18134604D01*
X43119093Y18102197D01*
X43417193Y17804097D01*
X43449604Y17764604D01*
X43607203Y17635266D01*
X43787007Y17539159D01*
X43982105Y17479976D01*
X44134162Y17465000D01*
X44134171Y17465000D01*
X44184999Y17459994D01*
X44235827Y17465000D01*
X48821290Y17465000D01*
X48985010Y17301279D01*
X48985011Y8438722D01*
X46764097Y6217807D01*
X46724604Y6185396D01*
X46595266Y6027797D01*
X46499159Y5847992D01*
X46439976Y5652894D01*
X46425000Y5500837D01*
X46425000Y5500828D01*
X46419994Y5450000D01*
X46425000Y5399172D01*
X46425000Y5186340D01*
X46369340Y5140661D01*
X46177520Y4906927D01*
X46034983Y4640261D01*
X45947210Y4350913D01*
X45925000Y4125408D01*
X45925000Y2774593D01*
X45947210Y2549088D01*
X46034983Y2259740D01*
X46177519Y1993074D01*
X46369339Y1759339D01*
X46603073Y1567519D01*
X46869739Y1424983D01*
X47159087Y1337210D01*
X47460000Y1307573D01*
X47760912Y1337210D01*
X48050260Y1424983D01*
X48316926Y1567519D01*
X48550661Y1759339D01*
X48742481Y1993073D01*
X48885017Y2259739D01*
X48972790Y2549087D01*
X48995000Y2774592D01*
X48995000Y4125408D01*
X48972790Y4350913D01*
X48885017Y4640261D01*
X48742481Y4906927D01*
X48579379Y5105668D01*
X50715918Y7242207D01*
X50755406Y7274614D01*
X50787813Y7314102D01*
X50884744Y7432212D01*
X50962560Y7577797D01*
X50980851Y7612017D01*
X51040034Y7807115D01*
X51055010Y7959172D01*
X51055010Y7959174D01*
X51060017Y8010010D01*
X51055010Y8060845D01*
X51055010Y17679155D01*
X51060017Y17729990D01*
X51055010Y17780828D01*
X51040034Y17932885D01*
X50988731Y18102007D01*
X50980851Y18127984D01*
X50884744Y18307788D01*
X50787813Y18425898D01*
X50755406Y18465386D01*
X50715918Y18497793D01*
X50017807Y19195903D01*
X49985396Y19235396D01*
X49827797Y19364734D01*
X49673437Y19447241D01*
X49770970Y19491432D01*
X50000738Y19656082D01*
X50193970Y19862392D01*
X50343239Y20102436D01*
X50442810Y20366989D01*
X50488856Y20645883D01*
X50479607Y20928403D01*
X50415419Y21203689D01*
X50327993Y21396643D01*
X49957500Y22038355D01*
X49834110Y22210546D01*
X49627800Y22403778D01*
X49387755Y22553047D01*
X49123203Y22652618D01*
X48844308Y22698664D01*
X48561790Y22689415D01*
X48286504Y22625227D01*
X48029030Y22508567D01*
X47799262Y22343918D01*
X47618289Y22150697D01*
X47553932Y22271101D01*
X47374607Y22489608D01*
X47156100Y22668932D01*
X46906807Y22802182D01*
X46636308Y22884236D01*
X46355000Y22911943D01*
X46073691Y22884236D01*
X45803192Y22802182D01*
X45553899Y22668932D01*
X45335392Y22489607D01*
X45156068Y22271100D01*
X45085000Y22138142D01*
X45013932Y22271101D01*
X44834607Y22489608D01*
X44616100Y22668932D01*
X44366807Y22802182D01*
X44096308Y22884236D01*
X43815000Y22911943D01*
X43533691Y22884236D01*
X43263192Y22802182D01*
X43013899Y22668932D01*
X42795392Y22489607D01*
X42616068Y22271100D01*
X42545000Y22138142D01*
X42478175Y22263163D01*
X42556964Y22305276D01*
X42714563Y22434614D01*
X42746974Y22474107D01*
X43240903Y22968036D01*
X43280396Y23000447D01*
X43409734Y23158046D01*
X43505841Y23337850D01*
X43565024Y23532948D01*
X43580000Y23685005D01*
X43580000Y23685008D01*
X43585007Y23735843D01*
X43580000Y23786678D01*
X43580000Y25183659D01*
X43635661Y25229339D01*
X43827481Y25463073D01*
X43970017Y25729739D01*
X44057790Y26019087D01*
X44080000Y26244592D01*
X44080000Y26494473D01*
X44155890Y26388568D01*
X44362200Y26195336D01*
X44602245Y26046067D01*
X44866797Y25946496D01*
X45145691Y25900450D01*
X45428210Y25909699D01*
X45703496Y25973887D01*
X45960970Y26090546D01*
X46190738Y26255196D01*
X46190818Y26255281D01*
X46277519Y26093074D01*
X46469339Y25859339D01*
X46703073Y25667519D01*
X46969739Y25524983D01*
X47259087Y25437210D01*
X47560000Y25407573D01*
X47860912Y25437210D01*
X48150260Y25524983D01*
X48416926Y25667519D01*
X48650661Y25859339D01*
X48842481Y26093073D01*
X48985017Y26359739D01*
X49072790Y26649087D01*
X49095000Y26874592D01*
X49095000Y28225408D01*
X49072790Y28450913D01*
X48985017Y28740261D01*
X48842481Y29006927D01*
X48650661Y29240661D01*
X48416927Y29432481D01*
X48150261Y29575017D01*
X47860913Y29662790D01*
X47560000Y29692427D01*
X47259088Y29662790D01*
X46969740Y29575017D01*
X46703074Y29432481D01*
X46469340Y29240661D01*
X46277520Y29006927D01*
X46134983Y28740261D01*
X46116798Y28680314D01*
X46024110Y28809660D01*
X45817800Y29002892D01*
X45577755Y29152161D01*
X45313203Y29251732D01*
X45034308Y29297778D01*
X44751790Y29288529D01*
X44476504Y29224341D01*
X44219030Y29107681D01*
X43989262Y28943032D01*
X43796030Y28736722D01*
X43682301Y28553830D01*
X43635661Y28610661D01*
X43401926Y28802481D01*
X43135260Y28945017D01*
X42845912Y29032790D01*
X42545000Y29062427D01*
X42244087Y29032790D01*
X41954739Y28945017D01*
X41688073Y28802481D01*
X41454339Y28610661D01*
X41275000Y28392135D01*
X41095661Y28610661D01*
X40861926Y28802481D01*
X40595260Y28945017D01*
X40305912Y29032790D01*
X40005000Y29062427D01*
X39704087Y29032790D01*
X39414739Y28945017D01*
X39148073Y28802481D01*
X38914339Y28610661D01*
X38735000Y28392135D01*
X38555661Y28610661D01*
X38321926Y28802481D01*
X38055260Y28945017D01*
X37765912Y29032790D01*
X37465000Y29062427D01*
X37398437Y29055871D01*
X36605665Y29848643D01*
X51415000Y29864277D01*
X51415001Y734342D01*
G36*
X29985678Y22474102D02*
G01*
X30018085Y22434614D01*
X30037311Y22418835D01*
X29916068Y22271100D01*
X29782818Y22021807D01*
X29700764Y21751308D01*
X29680000Y21540491D01*
X29680000Y20399508D01*
X29700764Y20188691D01*
X29782818Y19918192D01*
X29843326Y19804990D01*
X27306674Y19804990D01*
X27367182Y19918192D01*
X27449236Y20188691D01*
X27470000Y20399508D01*
X27470000Y21540492D01*
X27449236Y21751309D01*
X27367182Y22021808D01*
X27233932Y22271101D01*
X27054607Y22489608D01*
X26836100Y22668932D01*
X26586807Y22802182D01*
X26316308Y22884236D01*
X26035000Y22911943D01*
X25753691Y22884236D01*
X25483192Y22802182D01*
X25233899Y22668932D01*
X25015392Y22489607D01*
X24836068Y22271100D01*
X24765000Y22138142D01*
X24693932Y22271101D01*
X24514607Y22489608D01*
X24296100Y22668932D01*
X24046807Y22802182D01*
X23819764Y22871054D01*
X24823712Y23875001D01*
X28584780Y23875001D01*
X29985678Y22474102D01*
X29985678Y22474102D01*
G37*
X29985678Y22474102D02*
X30018085Y22434614D01*
X30037311Y22418835D01*
X29916068Y22271100D01*
X29782818Y22021807D01*
X29700764Y21751308D01*
X29680000Y21540491D01*
X29680000Y20399508D01*
X29700764Y20188691D01*
X29782818Y19918192D01*
X29843326Y19804990D01*
X27306674Y19804990D01*
X27367182Y19918192D01*
X27449236Y20188691D01*
X27470000Y20399508D01*
X27470000Y21540492D01*
X27449236Y21751309D01*
X27367182Y22021808D01*
X27233932Y22271101D01*
X27054607Y22489608D01*
X26836100Y22668932D01*
X26586807Y22802182D01*
X26316308Y22884236D01*
X26035000Y22911943D01*
X25753691Y22884236D01*
X25483192Y22802182D01*
X25233899Y22668932D01*
X25015392Y22489607D01*
X24836068Y22271100D01*
X24765000Y22138142D01*
X24693932Y22271101D01*
X24514607Y22489608D01*
X24296100Y22668932D01*
X24046807Y22802182D01*
X23819764Y22871054D01*
X24823712Y23875001D01*
X28584780Y23875001D01*
X29985678Y22474102D01*
G36*
X35930133Y27596755D02*
G01*
X35930000Y27595407D01*
X35930000Y26244592D01*
X35952210Y26019087D01*
X36039983Y25729739D01*
X36133389Y25554990D01*
X31670702Y25554990D01*
X30319778Y26905914D01*
X30287367Y26945407D01*
X30129768Y27074745D01*
X29949964Y27170852D01*
X29754866Y27230035D01*
X29602809Y27245011D01*
X29602799Y27245011D01*
X29551971Y27250017D01*
X29501143Y27245011D01*
X23205846Y27245011D01*
X23155011Y27250018D01*
X23104176Y27245011D01*
X23104173Y27245011D01*
X22952116Y27230035D01*
X22757018Y27170852D01*
X22676108Y27127605D01*
X22577213Y27074745D01*
X22488814Y27002197D01*
X22419615Y26945407D01*
X22387208Y26905919D01*
X18390855Y22909565D01*
X18133691Y22884236D01*
X17863192Y22802182D01*
X17613899Y22668932D01*
X17395392Y22489607D01*
X17216068Y22271100D01*
X17145000Y22138142D01*
X17073932Y22271101D01*
X16910000Y22470852D01*
X16910000Y22641290D01*
X17840908Y23572197D01*
X17880396Y23604604D01*
X17921965Y23655256D01*
X18009734Y23762202D01*
X18086277Y23905406D01*
X18105841Y23942007D01*
X18165024Y24137105D01*
X18180000Y24289162D01*
X18180000Y24289171D01*
X18185006Y24339999D01*
X18180000Y24390827D01*
X18180000Y25183659D01*
X18235661Y25229339D01*
X18427481Y25463073D01*
X18570017Y25729739D01*
X18657790Y26019087D01*
X18680000Y26244592D01*
X18680000Y27595408D01*
X18657790Y27820913D01*
X18570017Y28110261D01*
X18476612Y28285010D01*
X35241878Y28285010D01*
X35930133Y27596755D01*
X35930133Y27596755D01*
G37*
X35930133Y27596755D02*
X35930000Y27595407D01*
X35930000Y26244592D01*
X35952210Y26019087D01*
X36039983Y25729739D01*
X36133389Y25554990D01*
X31670702Y25554990D01*
X30319778Y26905914D01*
X30287367Y26945407D01*
X30129768Y27074745D01*
X29949964Y27170852D01*
X29754866Y27230035D01*
X29602809Y27245011D01*
X29602799Y27245011D01*
X29551971Y27250017D01*
X29501143Y27245011D01*
X23205846Y27245011D01*
X23155011Y27250018D01*
X23104176Y27245011D01*
X23104173Y27245011D01*
X22952116Y27230035D01*
X22757018Y27170852D01*
X22676108Y27127605D01*
X22577213Y27074745D01*
X22488814Y27002197D01*
X22419615Y26945407D01*
X22387208Y26905919D01*
X18390855Y22909565D01*
X18133691Y22884236D01*
X17863192Y22802182D01*
X17613899Y22668932D01*
X17395392Y22489607D01*
X17216068Y22271100D01*
X17145000Y22138142D01*
X17073932Y22271101D01*
X16910000Y22470852D01*
X16910000Y22641290D01*
X17840908Y23572197D01*
X17880396Y23604604D01*
X17921965Y23655256D01*
X18009734Y23762202D01*
X18086277Y23905406D01*
X18105841Y23942007D01*
X18165024Y24137105D01*
X18180000Y24289162D01*
X18180000Y24289171D01*
X18185006Y24339999D01*
X18180000Y24390827D01*
X18180000Y25183659D01*
X18235661Y25229339D01*
X18427481Y25463073D01*
X18570017Y25729739D01*
X18657790Y26019087D01*
X18680000Y26244592D01*
X18680000Y27595408D01*
X18657790Y27820913D01*
X18570017Y28110261D01*
X18476612Y28285010D01*
X35241878Y28285010D01*
X35930133Y27596755D01*
M02*
