M48
; DRILL file {KiCad 5.1.4-3.fc30} date Wed 04 Sep 2019 23:18:59 CEST
; FORMAT={-:-/ absolute / metric / decimal}
; #@! TF.CreationDate,2019-09-04T23:18:59+02:00
; #@! TF.GenerationSoftware,Kicad,Pcbnew,5.1.4-3.fc30
FMAT,2
METRIC
T1C0.762
T2C0.800
T3C1.000
%
G90
G05
T1
X9.525Y27.32
X12.065Y27.32
X14.605Y27.32
X17.145Y27.32
X34.925Y27.32
X37.465Y27.32
X40.005Y27.32
X42.545Y27.32
T2
X8.255Y24.78
X19.05Y24.78
X20.3Y5.25
X28.55Y23.1
X31.1Y5.35
X32.385Y27.32
X45.09Y27.599
X48.9Y21.0
X1.905Y10.81
X9.525Y10.81
X29.3Y9.24
X31.8Y9.24
X1.905Y14.62
X9.525Y14.62
X12.065Y3.825
X14.065Y3.825
X1.905Y18.43
X9.525Y18.43
X36.255Y9.24
X41.135Y9.24
X45.62Y9.24
X48.12Y9.24
X13.335Y20.97
X13.335Y13.35
X15.875Y20.97
X15.875Y13.35
X18.415Y20.97
X18.415Y13.35
X20.955Y20.97
X20.955Y13.35
X23.495Y20.97
X23.495Y13.35
X26.035Y20.97
X26.035Y13.35
X28.575Y20.97
X28.575Y13.35
X31.115Y20.97
X31.115Y13.35
X33.655Y20.97
X33.655Y13.35
X36.195Y20.97
X36.195Y13.35
X38.735Y20.97
X38.735Y13.35
X41.275Y20.97
X41.275Y13.35
X43.815Y20.97
X43.815Y13.35
X46.355Y20.97
X46.355Y13.35
X14.188Y10.592
X15.984Y8.796
X17.78Y7.0
X3.81Y7.0
X11.43Y7.0
X1.905Y3.19
X9.525Y3.19
X19.903Y10.592
X21.699Y8.796
X23.495Y7.0
T3
X47.46Y3.45
X50.0Y3.45
X26.1Y3.55
X28.64Y3.55
X31.18Y3.55
X33.72Y3.55
X36.26Y3.55
X38.8Y3.55
X47.56Y27.55
X50.1Y27.55
T0
M30
